<?xml version="1.0" encoding="UTF-8"?>
<svg version="1.1" xmlns="http://www.w3.org/2000/svg" width="225" height="225">
<path d="M0 0 C74.25 0 148.5 0 225 0 C225 74.25 225 148.5 225 225 C150.75 225 76.5 225 0 225 C0 150.75 0 76.5 0 0 Z " fill="#FEFEFE" transform="translate(0,0)"/>
<path d="M0 0 C13.695 -0.04125 27.39 -0.0825 41.5 -0.125 C45.79193359 -0.14320801 50.08386719 -0.16141602 54.50585938 -0.18017578 C59.82910156 -0.18920898 59.82910156 -0.18920898 62.33703613 -0.19088745 C64.05384362 -0.1939181 65.77064741 -0.20086567 67.48742676 -0.21115112 C91.859723 -0.34961108 115.67691949 2.17285666 134.3125 19.6875 C147.77104662 33.96695315 151.59898579 51.18444834 151.2734375 70.1953125 C150.50921787 88.93760986 142.59459813 104.26109177 128.8828125 116.9609375 C104.14244874 137.71384336 67.24712972 133.26795134 37.1875 133.125 C24.915625 133.08375 12.64375 133.0425 0 133 C0 89.11 0 45.22 0 0 Z " fill="#06AB37" transform="translate(37,3)"/>
<path d="M0 0 C7.96125 -0.061875 15.9225 -0.12375 24.125 -0.1875 C26.60789551 -0.21481201 29.09079102 -0.24212402 31.64892578 -0.27026367 C64.33793096 -0.48234115 64.33793096 -0.48234115 76.87109375 10.6640625 C85.62415512 20.22476295 86.56802809 30.48307431 86.13183594 42.91455078 C85.53695752 52.3246461 81.85970439 60.69447243 74.7734375 66.97265625 C63.27437497 75.56957442 51.52070385 77.16734007 37.59765625 77.09765625 C36.64145386 77.09664917 35.68525146 77.09564209 34.70007324 77.09460449 C31.15420316 77.08940259 27.60835028 77.07544148 24.0625 77.0625 C16.121875 77.041875 8.18125 77.02125 0 77 C0 51.59 0 26.18 0 0 Z " fill="#FEFEFE" transform="translate(69,31)"/>
<path d="M0 0 C10.56 0 21.12 0 32 0 C32 19.14 32 38.28 32 58 C21.44 58 10.88 58 0 58 C0 38.86 0 19.72 0 0 Z " fill="#06AB36" transform="translate(37,164)"/>
</svg>
